<svg width="400" height="400" viewBox="0 0 400 400" fill="none" xmlns="http://www.w3.org/2000/svg">
<path d="M326.616 0H276.626L201.64 56.239L225.308 73.9699C228.159 73.1498 230.892 71.7829 233.314 69.9863L326.616 0Z" fill="#40B2C0"/>
<path d="M75.0244 62.5659L75.0244 337.512C75.0244 351.299 86.2331 362.507 100.02 362.507H299.98C313.767 362.507 324.976 351.299 324.976 337.512V62.5659C324.976 48.7796 313.767 37.5708 299.98 37.5708L100.02 37.5708C86.2331 37.5708 75.0244 48.7796 75.0244 62.5659ZM262.488 87.561H137.512C130.599 87.561 125.015 81.9762 125.015 75.0635C125.015 68.1508 130.599 62.5659 137.512 62.5659L262.488 62.5659C269.4 62.5659 274.985 68.1508 274.985 75.0635C274.985 81.9762 269.4 87.561 262.488 87.561Z" fill="#21A6B6"/>
<g filter="url(#filter0_dd_11361_6194)">
<path d="M75.2136 121.947L325.091 121.929L325.107 342.764C325.108 353.81 316.154 362.765 305.109 362.766L95.231 362.781C84.1853 362.782 75.2304 353.828 75.2296 342.782L75.2136 121.947Z" fill="#21A6B6"/>
<path d="M75.7136 122.447L324.591 122.429L324.607 342.764C324.608 353.534 315.878 362.265 305.108 362.266L95.231 362.281C84.4615 362.282 75.7304 353.552 75.7296 342.782L75.7136 122.447Z" stroke="#21A6B6"/>
</g>
<rect x="144.695" y="104.435" width="113" height="113" rx="17.5" stroke="white" stroke-width="5"/>
<path d="M157.209 186.534L157.214 135.624L191.518 135.628L191.517 144.502L167.977 144.5L167.976 156.631L189.751 156.633L189.75 165.507L167.975 165.505L167.973 177.66L191.613 177.663L191.612 186.537L157.209 186.534ZM233.831 152.088C233.483 150.878 232.994 149.809 232.365 148.881C231.735 147.937 230.965 147.141 230.053 146.495C229.158 145.832 228.131 145.326 226.971 144.978C225.827 144.63 224.56 144.456 223.168 144.456C220.566 144.455 218.279 145.102 216.307 146.394C214.351 147.686 212.826 149.567 211.732 152.036C210.638 154.489 210.091 157.488 210.091 161.035C210.09 164.581 210.629 167.597 211.706 170.083C212.782 172.569 214.307 174.467 216.279 175.776C218.251 177.069 220.579 177.715 223.264 177.716C225.7 177.716 227.78 177.285 229.503 176.424C231.243 175.546 232.569 174.311 233.481 172.72C234.409 171.129 234.873 169.249 234.873 167.078L237.061 167.401L223.936 167.4L223.937 159.296L245.24 159.298L245.239 165.712C245.239 170.186 244.294 174.031 242.404 177.245C240.515 180.444 237.913 182.913 234.598 184.652C231.284 186.375 227.489 187.237 223.213 187.236C218.44 187.236 214.248 186.183 210.635 184.078C207.023 181.956 204.206 178.948 202.184 175.054C200.18 171.143 199.177 166.502 199.178 161.133C199.178 157.007 199.775 153.328 200.969 150.096C202.179 146.848 203.87 144.097 206.041 141.844C208.212 139.59 210.739 137.875 213.623 136.699C216.507 135.523 219.631 134.935 222.995 134.935C225.878 134.935 228.563 135.358 231.048 136.204C233.534 137.033 235.738 138.209 237.66 139.734C239.599 141.259 241.182 143.074 242.408 145.179C243.634 147.267 244.421 149.57 244.768 152.089L233.831 152.088Z" fill="white"/>
<path d="M154.999 243.23C154.885 242.084 154.397 241.194 153.535 240.56C152.674 239.925 151.504 239.608 150.027 239.608C149.023 239.608 148.176 239.75 147.484 240.034C146.793 240.309 146.263 240.693 145.893 241.185C145.534 241.678 145.354 242.236 145.354 242.861C145.335 243.382 145.444 243.837 145.681 244.225C145.927 244.613 146.263 244.949 146.689 245.233C147.115 245.508 147.608 245.749 148.167 245.958C148.725 246.157 149.322 246.327 149.956 246.469L152.57 247.094C153.839 247.378 155.004 247.756 156.064 248.23C157.125 248.703 158.044 249.286 158.82 249.977C159.597 250.668 160.198 251.482 160.624 252.42C161.06 253.357 161.283 254.432 161.292 255.644C161.283 257.425 160.828 258.968 159.929 260.275C159.039 261.572 157.751 262.581 156.066 263.301C154.389 264.011 152.368 264.366 150 264.367C147.652 264.367 145.606 264.007 143.864 263.288C142.131 262.568 140.777 261.503 139.801 260.092C138.835 258.671 138.328 256.915 138.281 254.822L144.233 254.822C144.299 255.797 144.578 256.611 145.071 257.265C145.573 257.909 146.24 258.396 147.074 258.728C147.917 259.05 148.868 259.21 149.929 259.21C150.971 259.21 151.875 259.059 152.642 258.756C153.418 258.453 154.02 258.031 154.446 257.491C154.872 256.952 155.085 256.331 155.085 255.63C155.085 254.977 154.891 254.428 154.502 253.983C154.124 253.538 153.565 253.159 152.826 252.847C152.097 252.534 151.202 252.25 150.141 251.994L146.974 251.199C144.521 250.603 142.584 249.67 141.164 248.401C139.743 247.133 139.038 245.423 139.047 243.274C139.037 241.512 139.506 239.973 140.453 238.657C141.409 237.341 142.721 236.313 144.387 235.574C146.054 234.836 147.948 234.466 150.069 234.466C152.228 234.466 154.113 234.835 155.723 235.574C157.342 236.312 158.602 237.34 159.501 238.656C160.401 239.972 160.865 241.497 160.894 243.23L154.999 243.23ZM169.78 263.953L163.189 263.954L173.23 234.862L181.156 234.862L191.186 263.952L184.595 263.952L177.307 241.51L177.08 241.51L169.78 263.953ZM169.367 252.519L184.935 252.518L184.936 257.319L169.368 257.32L169.367 252.519ZM194.688 263.951L194.686 234.861L200.836 234.86L200.838 258.88L213.31 258.879L213.31 263.95L194.688 263.951ZM217.383 263.95L217.381 234.859L236.983 234.858L236.984 239.929L223.532 239.93L223.532 246.861L235.976 246.86L235.976 251.931L223.533 251.932L223.533 258.878L237.042 258.877L237.042 263.948L217.383 263.95ZM257.655 243.222C257.541 242.077 257.053 241.187 256.192 240.552C255.33 239.918 254.16 239.601 252.683 239.601C251.679 239.601 250.832 239.743 250.141 240.027C249.449 240.302 248.919 240.685 248.55 241.178C248.19 241.67 248.01 242.229 248.01 242.854C247.991 243.375 248.1 243.829 248.337 244.217C248.583 244.606 248.919 244.942 249.345 245.226C249.772 245.501 250.264 245.742 250.823 245.95C251.382 246.149 251.978 246.319 252.613 246.461L255.226 247.086C256.495 247.37 257.66 247.749 258.721 248.222C259.781 248.696 260.7 249.278 261.476 249.969C262.253 250.661 262.854 251.475 263.281 252.412C263.716 253.35 263.939 254.425 263.948 255.637C263.939 257.417 263.485 258.961 262.585 260.268C261.695 261.565 260.407 262.574 258.722 263.293C257.046 264.004 255.024 264.359 252.656 264.359C250.308 264.359 248.263 264 246.52 263.28C244.787 262.561 243.433 261.495 242.457 260.084C241.491 258.664 240.985 256.907 240.937 254.815L246.889 254.814C246.955 255.79 247.235 256.604 247.727 257.257C248.229 257.901 248.897 258.389 249.73 258.72C250.573 259.042 251.524 259.203 252.585 259.203C253.627 259.203 254.531 259.051 255.298 258.748C256.075 258.445 256.676 258.024 257.102 257.484C257.528 256.944 257.741 256.324 257.741 255.623C257.741 254.97 257.547 254.42 257.159 253.975C256.78 253.53 256.221 253.152 255.482 252.839C254.753 252.527 253.858 252.243 252.798 251.987L249.63 251.192C247.177 250.595 245.241 249.663 243.82 248.394C242.4 247.125 241.694 245.416 241.703 243.266C241.694 241.505 242.162 239.966 243.109 238.65C244.066 237.333 245.377 236.306 247.044 235.567C248.71 234.828 250.604 234.459 252.725 234.459C254.884 234.458 256.769 234.828 258.379 235.566C259.998 236.305 261.258 237.332 262.157 238.648C263.057 239.965 263.521 241.489 263.55 243.222L257.655 243.222Z" fill="white"/>
<rect x="120.689" y="277.967" width="161" height="11.4738" fill="white"/>
<rect x="120.689" y="299.453" width="161" height="11.4738" fill="white"/>
<rect x="120.689" y="320.938" width="161" height="11.4738" fill="white"/>
<path d="M209.554 62.0755L247.822 62.1916L225.294 73.9279L209.554 62.0755Z" fill="#40B2C0"/>
<path d="M126.616 0H76.6257L169.967 69.9863C172.388 71.7829 175.083 73.1498 177.973 73.9699C180.199 74.6339 182.503 74.9463 184.847 74.9854H218.278C220.66 74.9854 223.003 74.6339 225.269 73.9699L126.616 0Z" fill="#7ECAD3"/>
<defs>
<filter id="filter0_dd_11361_6194" x="65.1136" y="121.929" width="270.093" height="269.952" filterUnits="userSpaceOnUse" color-interpolation-filters="sRGB">
<feFlood flood-opacity="0" result="BackgroundImageFix"/>
<feColorMatrix in="SourceAlpha" type="matrix" values="0 0 0 0 0 0 0 0 0 0 0 0 0 0 0 0 0 0 127 0" result="hardAlpha"/>
<feMorphology radius="22" operator="erode" in="SourceAlpha" result="effect1_dropShadow_11361_6194"/>
<feOffset dy="19"/>
<feGaussianBlur stdDeviation="16.05"/>
<feComposite in2="hardAlpha" operator="out"/>
<feColorMatrix type="matrix" values="0 0 0 0 0.619608 0 0 0 0 0.647059 0 0 0 0 0.678431 0 0 0 0.08 0"/>
<feBlend mode="normal" in2="BackgroundImageFix" result="effect1_dropShadow_11361_6194"/>
<feColorMatrix in="SourceAlpha" type="matrix" values="0 0 0 0 0 0 0 0 0 0 0 0 0 0 0 0 0 0 127 0" result="hardAlpha"/>
<feOffset dy="7"/>
<feGaussianBlur stdDeviation="3.5"/>
<feComposite in2="hardAlpha" operator="out"/>
<feColorMatrix type="matrix" values="0 0 0 0 0.619608 0 0 0 0 0.647059 0 0 0 0 0.678431 0 0 0 0.32 0"/>
<feBlend mode="normal" in2="effect1_dropShadow_11361_6194" result="effect2_dropShadow_11361_6194"/>
<feBlend mode="normal" in="SourceGraphic" in2="effect2_dropShadow_11361_6194" result="shape"/>
</filter>
</defs>
</svg>
